<svg width="50" height="50" viewBox="0 0 50 50" fill="none" xmlns="http://www.w3.org/2000/svg">
<path d="M40.875 14.5332C40.2 14.8498 39.75 15.4665 39.75 16.0832V16.3332H40.4833H41.2167L41.3083 16.0832C41.4417 15.7415 41.775 15.5915 42.0667 15.7582C42.3833 15.9332 42.4833 16.2665 42.3167 16.5998C42.2417 16.7498 41.6333 17.4748 40.9667 18.2082L39.75 19.5415V20.2248V20.9165H41.8333H43.9167V20.2498V19.5832H42.7917C42.175 19.5832 41.6667 19.5582 41.6667 19.5332C41.6667 19.5082 42.1 19.0165 42.6333 18.4498C43.1583 17.8748 43.6667 17.2498 43.75 17.0582C44.0833 16.3332 43.9083 15.4082 43.325 14.8582C42.7417 14.3082 41.65 14.1665 40.875 14.5332Z" fill="black"/>
<path d="M11.1665 24.7083V32.0833H12.9998H14.8332L14.8498 28.4583L14.8748 24.8333L17.1665 28.4499L19.4582 32.0749L21.0665 32.0833H22.6665V24.7083V17.3333H20.8332H18.9998L18.9832 20.9583L18.9582 24.5833L16.6665 20.9666L14.3748 17.3416L12.7748 17.3333H11.1665V24.7083Z" fill="black"/>
<path d="M27.25 24.7083V32.0833H29.0833H30.9167V29.2499V26.4166H33.625H36.3333V24.7916V23.1666H33.625H30.9167V21.8749V20.5833H34.125H37.3333V18.9583V17.3333H32.2917H27.25V24.7083Z" fill="black"/>
</svg>
