<svg width="30" height="30" viewBox="0 0 30 30" fill="none" xmlns="http://www.w3.org/2000/svg">
<g clip-path="url(#clip0_3_253)">
<path d="M3.75 23.75V7.125C3.74992 6.86841 3.82881 6.61801 3.97596 6.4078C4.12311 6.19759 4.33138 6.03776 4.5725 5.95L16.6613 1.555C16.7557 1.52063 16.857 1.50954 16.9566 1.52267C17.0563 1.53579 17.1513 1.57275 17.2336 1.6304C17.3159 1.68805 17.3831 1.7647 17.4294 1.85385C17.4758 1.94299 17.5 2.04201 17.5 2.1425V8.33375L25.395 10.965C25.644 11.0479 25.8606 11.2071 26.0141 11.4201C26.1675 11.633 26.2501 11.8888 26.25 12.1512V23.75H28.75V26.25H1.25V23.75H3.75ZM6.25 23.75H15V4.81875L6.25 8.00125V23.75ZM23.75 23.75V13.0525L17.5 10.9687V23.75H23.75Z" fill="#7283A1"/>
</g>
<defs>
<clipPath id="clip0_3_253">
<rect width="30" height="30" fill="white"/>
</clipPath>
</defs>
</svg>
