<svg width="163" height="31" viewBox="0 0 163 31" fill="none" xmlns="http://www.w3.org/2000/svg">
<path d="M3.74713 0.981936V1.96384H18.0665H32.3859V0.981936V3.62732e-05H18.0665H3.74713V0.981936Z" fill="white"/>
<path d="M0 17.5339V31H0.936782H1.87356V17.5339V4.06788H0.936782H0V17.5339Z" fill="white"/>
<path d="M3.74713 17.5339V31L13.8644 30.9719L23.9816 30.9299L23.9549 28.1665L23.9415 25.3891L28.1302 25.3611L32.319 25.319L32.3591 14.6864L32.3859 4.06788H18.0665H3.74713V17.5339ZM30.3785 14.6584V23.2851L26.27 23.3131L22.1482 23.3552L22.1081 26.1887L22.0813 29.0362H13.851H5.62069V17.5339V6.03168H17.9996H30.3785V14.6584Z" fill="white"/>
<path d="M26.0425 10.6747C25.6143 11.0254 25.5741 11.5023 25.989 11.5023C26.1496 11.5023 26.3771 11.4041 26.5109 11.2778C26.7786 11.0254 27.0328 11.1235 27.0328 11.4602C27.0328 11.5864 26.7384 12.0213 26.3637 12.4281C25.8552 12.9892 25.6946 13.2697 25.6946 13.5923V14.0272H26.7652C27.8224 14.0272 27.8358 14.0272 27.8358 13.6765C27.8358 13.3539 27.7823 13.3258 27.2336 13.3258H26.6314L27.2336 12.5543C27.9161 11.6566 27.983 11.2217 27.5012 10.7308C27.0998 10.2959 26.5243 10.2819 26.0425 10.6747Z" fill="white"/>
<path d="M10.5723 16.1312V20.1991H11.509H12.4458V18.2073C12.4458 16.7625 12.486 16.2575 12.593 16.3697C12.6733 16.4539 13.2354 17.3376 13.8376 18.3195L14.935 20.129L15.7647 20.1711L16.5944 20.2131V16.1312V12.0634H15.6577H14.7343L14.6941 14.0552L14.654 16.0611L13.4495 14.0692L12.2451 12.0634H11.4154H10.5723V16.1312Z" fill="white"/>
<path d="M19.0033 16.1312V20.1991H19.9401H20.8769V18.6561V17.1131H22.3489H23.821V16.2014V15.2896H22.3489H20.8769V14.5882V13.8869H22.5497H24.2225V12.9751V12.0634H21.6129H19.0033V16.1312Z" fill="white"/>
<path d="M39.6125 14.6584V25.2489H41.6199H43.6273L43.654 18.8244L43.6942 12.414L47.6421 18.8244L51.5765 25.2489H53.3564H55.1363V14.6584V4.06788H53.1289H51.1215V10.4643V16.8747L47.2004 10.5063L43.2793 4.13802L41.4459 4.09593L39.6125 4.05385V14.6584Z" fill="white"/>
<path d="M59.5525 14.6584V25.2489H66.2438H72.9351V23.3552V21.4615H68.2512H63.5673V18.9367V16.4118H67.5821H71.5969V14.5882V12.7647H67.5821H63.5673V10.31V7.85521H68.2512H72.9351V5.96155V4.06788H66.2438H59.5525V14.6584Z" fill="white"/>
<path d="M74.3135 4.23619C74.3403 4.33438 75.5715 9.10361 77.0302 14.8407L79.68 25.2629L81.3528 25.2208L83.0256 25.1787L84.859 18.8665C86.398 13.5923 86.7192 12.6104 86.8263 12.905C86.8932 13.1013 87.7229 15.9489 88.6731 19.2452L90.3994 25.2489H92.0722H93.7451L96.4082 14.8267C97.8669 9.10361 99.0981 4.33438 99.1383 4.23619C99.1784 4.09592 98.7502 4.06786 97.0907 4.09592L94.9897 4.138L93.4239 10.7308L91.8581 17.3095L90.0381 10.7308L88.2314 4.138H86.7058H85.1936L83.3736 10.7027C82.3832 14.3077 81.5401 17.1832 81.5134 17.0851C81.4732 16.9869 80.7773 14.0271 79.961 10.5203L78.4755 4.138L76.3611 4.09592C74.6883 4.06786 74.26 4.09592 74.3135 4.23619Z" fill="white"/>
<path d="M101.306 14.6584V25.2489H103.314H105.321V20.9706V16.6923H109.336H113.351V14.8688V13.0453H109.336H105.321V10.4502V7.85521H110.005H114.689V5.96155V4.06788H107.998H101.306V14.6584Z" fill="white"/>
<path d="M117.767 14.6584V25.2489H124.391H131.029L130.989 23.3833L130.949 21.5317L126.372 21.4896L121.782 21.4615V12.7647V4.06788H119.774H117.767V14.6584Z" fill="white"/>
<path d="M138.764 4.44661C138.684 4.65702 137.065 9.31403 135.164 14.7986C133.264 20.2692 131.671 24.8701 131.618 24.9964C131.524 25.2348 131.671 25.2489 133.598 25.2489H135.673L136.208 23.6638C136.502 22.8081 136.783 21.9525 136.824 21.7701L136.917 21.4615H140.504H144.09L144.652 23.3552L145.215 25.2489H147.289C148.426 25.2489 149.35 25.2068 149.35 25.1367C149.336 25.0805 147.704 20.3394 145.696 14.5882L142.043 4.13802L140.477 4.09593L138.911 4.05385L138.764 4.44661ZM141.775 14.1394C142.404 16.1032 142.926 17.7584 142.926 17.8285C142.926 17.8986 141.909 17.9548 140.517 17.9548C139.192 17.9548 138.108 17.8986 138.108 17.8285C138.108 17.7303 139.835 12.4842 140.45 10.6747C140.49 10.5624 140.544 10.5063 140.571 10.5344C140.598 10.5624 141.133 12.1896 141.775 14.1394Z" fill="white"/>
<path d="M148.44 5.91946L148.48 7.78507L151.13 7.82716L153.766 7.85521V16.552V25.2489H155.773H157.781V16.552V7.85521H160.39H163V5.96155V4.06788H155.706H148.4L148.44 5.91946Z" fill="white"/>
</svg>
