<svg width="30" height="30" viewBox="0 0 30 30" fill="none" xmlns="http://www.w3.org/2000/svg">
<g clip-path="url(#clip0_3_258)">
<path d="M27.5 7.5H18.75C16.7609 7.5 14.8532 8.29018 13.4467 9.6967C12.0402 11.1032 11.25 13.0109 11.25 15C11.25 16.9891 12.0402 18.8968 13.4467 20.3033C14.8532 21.7098 16.7609 22.5 18.75 22.5H27.5V25C27.5 25.3315 27.3683 25.6495 27.1339 25.8839C26.8995 26.1183 26.5815 26.25 26.25 26.25H3.75C3.41848 26.25 3.10054 26.1183 2.86612 25.8839C2.6317 25.6495 2.5 25.3315 2.5 25V5C2.5 4.66848 2.6317 4.35054 2.86612 4.11612C3.10054 3.8817 3.41848 3.75 3.75 3.75H26.25C26.5815 3.75 26.8995 3.8817 27.1339 4.11612C27.3683 4.35054 27.5 4.66848 27.5 5V7.5ZM18.75 10H28.75V20H18.75C17.4239 20 16.1521 19.4732 15.2145 18.5355C14.2768 17.5979 13.75 16.3261 13.75 15C13.75 13.6739 14.2768 12.4021 15.2145 11.4645C16.1521 10.5268 17.4239 10 18.75 10ZM18.75 13.75V16.25H22.5V13.75H18.75Z" fill="#7283A1"/>
</g>
<defs>
<clipPath id="clip0_3_258">
<rect width="30" height="30" fill="white"/>
</clipPath>
</defs>
</svg>
